<svg width="414" height="323" viewBox="0 0 414 323" fill="none" xmlns="http://www.w3.org/2000/svg">
<rect x="65" y="190.857" width="264" height="132" rx="18" fill="#013137"/>
<rect x="65" y="153" width="264" height="150.857" rx="18" fill="#004852"/>
<path d="M65 171C65 161.059 73.0589 153 83 153H311C320.941 153 329 161.059 329 171V206.036H65V171Z" fill="#E8F54A"/>
<rect width="58.9286" height="5.89286" rx="2.94643" transform="matrix(1 0 0 -1 87.3928 250.821)" fill="#E8F54A"/>
<rect width="127.286" height="5.89286" rx="2.94643" transform="matrix(1 0 0 -1 87.3928 272.036)" fill="#E8F54A"/>
<g filter="url(#filter0_d_1_987)">
<rect x="36" y="18" width="158" height="68" rx="12" fill="white"/>
</g>
<path d="M51.78 34.18C51.78 34.5533 51.69 34.9033 51.51 35.23C51.3367 35.5567 51.06 35.82 50.68 36.02C50.3067 36.22 49.8333 36.32 49.26 36.32H48.09V39H46.69V32.02H49.26C49.8 32.02 50.26 32.1133 50.64 32.3C51.02 32.4867 51.3033 32.7433 51.49 33.07C51.6833 33.3967 51.78 33.7667 51.78 34.18ZM49.2 35.19C49.5867 35.19 49.8733 35.1033 50.06 34.93C50.2467 34.75 50.34 34.5 50.34 34.18C50.34 33.5 49.96 33.16 49.2 33.16H48.09V35.19H49.2ZM52.414 36.21C52.414 35.65 52.524 35.1533 52.744 34.72C52.9707 34.2867 53.274 33.9533 53.654 33.72C54.0407 33.4867 54.4707 33.37 54.944 33.37C55.3573 33.37 55.7173 33.4533 56.024 33.62C56.3373 33.7867 56.5873 33.9967 56.774 34.25V33.46H58.184V39H56.774V38.19C56.594 38.45 56.344 38.6667 56.024 38.84C55.7107 39.0067 55.3473 39.09 54.934 39.09C54.4673 39.09 54.0407 38.97 53.654 38.73C53.274 38.49 52.9707 38.1533 52.744 37.72C52.524 37.28 52.414 36.7767 52.414 36.21ZM56.774 36.23C56.774 35.89 56.7073 35.6 56.574 35.36C56.4407 35.1133 56.2607 34.9267 56.034 34.8C55.8073 34.6667 55.564 34.6 55.304 34.6C55.044 34.6 54.804 34.6633 54.584 34.79C54.364 34.9167 54.184 35.1033 54.044 35.35C53.9107 35.59 53.844 35.8767 53.844 36.21C53.844 36.5433 53.9107 36.8367 54.044 37.09C54.184 37.3367 54.364 37.5267 54.584 37.66C54.8107 37.7933 55.0507 37.86 55.304 37.86C55.564 37.86 55.8073 37.7967 56.034 37.67C56.2607 37.5367 56.4407 37.35 56.574 37.11C56.7073 36.8633 56.774 36.57 56.774 36.23ZM64.8513 33.46L61.4213 41.62H59.9313L61.1313 38.86L58.9113 33.46H60.4813L61.9113 37.33L63.3613 33.46H64.8513ZM72.486 33.38C73.166 33.38 73.7127 33.59 74.126 34.01C74.546 34.4233 74.756 35.0033 74.756 35.75V39H73.356V35.94C73.356 35.5067 73.246 35.1767 73.026 34.95C72.806 34.7167 72.506 34.6 72.126 34.6C71.746 34.6 71.4427 34.7167 71.216 34.95C70.996 35.1767 70.886 35.5067 70.886 35.94V39H69.486V35.94C69.486 35.5067 69.376 35.1767 69.156 34.95C68.936 34.7167 68.636 34.6 68.256 34.6C67.8693 34.6 67.5627 34.7167 67.336 34.95C67.116 35.1767 67.006 35.5067 67.006 35.94V39H65.606V33.46H67.006V34.13C67.186 33.8967 67.416 33.7133 67.696 33.58C67.9827 33.4467 68.296 33.38 68.636 33.38C69.0693 33.38 69.456 33.4733 69.796 33.66C70.136 33.84 70.3993 34.1 70.586 34.44C70.766 34.12 71.026 33.8633 71.366 33.67C71.7127 33.4767 72.086 33.38 72.486 33.38ZM81.2345 36.11C81.2345 36.31 81.2212 36.49 81.1945 36.65H77.1445C77.1779 37.05 77.3179 37.3633 77.5645 37.59C77.8112 37.8167 78.1145 37.93 78.4745 37.93C78.9945 37.93 79.3645 37.7067 79.5845 37.26H81.0945C80.9345 37.7933 80.6279 38.2333 80.1745 38.58C79.7212 38.92 79.1645 39.09 78.5045 39.09C77.9712 39.09 77.4912 38.9733 77.0645 38.74C76.6445 38.5 76.3145 38.1633 76.0745 37.73C75.8412 37.2967 75.7245 36.7967 75.7245 36.23C75.7245 35.6567 75.8412 35.1533 76.0745 34.72C76.3079 34.2867 76.6345 33.9533 77.0545 33.72C77.4745 33.4867 77.9579 33.37 78.5045 33.37C79.0312 33.37 79.5012 33.4833 79.9145 33.71C80.3345 33.9367 80.6579 34.26 80.8845 34.68C81.1179 35.0933 81.2345 35.57 81.2345 36.11ZM79.7845 35.71C79.7779 35.35 79.6479 35.0633 79.3945 34.85C79.1412 34.63 78.8312 34.52 78.4645 34.52C78.1179 34.52 77.8245 34.6267 77.5845 34.84C77.3512 35.0467 77.2079 35.3367 77.1545 35.71H79.7845ZM85.3264 33.38C85.9864 33.38 86.5197 33.59 86.9264 34.01C87.3331 34.4233 87.5364 35.0033 87.5364 35.75V39H86.1364V35.94C86.1364 35.5 86.0264 35.1633 85.8064 34.93C85.5864 34.69 85.2864 34.57 84.9064 34.57C84.5197 34.57 84.2131 34.69 83.9864 34.93C83.7664 35.1633 83.6564 35.5 83.6564 35.94V39H82.2564V33.46H83.6564V34.15C83.8431 33.91 84.0797 33.7233 84.3664 33.59C84.6597 33.45 84.9797 33.38 85.3264 33.38ZM90.4977 34.61V37.29C90.4977 37.4767 90.5411 37.6133 90.6277 37.7C90.7211 37.78 90.8744 37.82 91.0877 37.82H91.7377V39H90.8577C89.6777 39 89.0877 38.4267 89.0877 37.28V34.61H88.4277V33.46H89.0877V32.09H90.4977V33.46H91.7377V34.61H90.4977Z" fill="#858585"/>
<path d="M180.75 31.5C180.75 31.0858 180.414 30.75 180 30.75C179.586 30.75 179.25 31.0858 179.25 31.5H180.75ZM179.25 38.5C179.25 38.9142 179.586 39.25 180 39.25C180.414 39.25 180.75 38.9142 180.75 38.5H179.25ZM176.5 34.25C176.086 34.25 175.75 34.5858 175.75 35C175.75 35.4142 176.086 35.75 176.5 35.75V34.25ZM183.5 35.75C183.914 35.75 184.25 35.4142 184.25 35C184.25 34.5858 183.914 34.25 183.5 34.25V35.75ZM179.25 31.5V38.5H180.75V31.5H179.25ZM176.5 35.75H183.5V34.25H176.5V35.75Z" fill="#004852"/>
<path d="M92.656 62.494L93.286 63.614L91.368 64.328L93.286 65.042L92.642 66.19L91.046 64.93L91.34 66.96H90.052L90.318 64.93L88.722 66.218L88.05 65.028L89.954 64.314L88.05 63.628L88.694 62.48L90.332 63.74L90.052 61.696H91.354L91.046 63.74L92.656 62.494ZM99.7107 62.494L100.341 63.614L98.4227 64.328L100.341 65.042L99.6967 66.19L98.1007 64.93L98.3947 66.96H97.1067L97.3727 64.93L95.7767 66.218L95.1047 65.028L97.0087 64.314L95.1047 63.628L95.7487 62.48L97.3867 63.74L97.1067 61.696H98.4087L98.1007 63.74L99.7107 62.494ZM106.765 62.494L107.395 63.614L105.477 64.328L107.395 65.042L106.751 66.19L105.155 64.93L105.449 66.96H104.161L104.427 64.93L102.831 66.218L102.159 65.028L104.063 64.314L102.159 63.628L102.803 62.48L104.441 63.74L104.161 61.696H105.463L105.155 63.74L106.765 62.494ZM113.82 62.494L114.45 63.614L112.532 64.328L114.45 65.042L113.806 66.19L112.21 64.93L112.504 66.96H111.216L111.482 64.93L109.886 66.218L109.214 65.028L111.118 64.314L109.214 63.628L109.858 62.48L111.496 63.74L111.216 61.696H112.518L112.21 63.74L113.82 62.494ZM119.653 63.25V61.794H122.565V72H120.955V63.25H119.653ZM126.746 69.228C126.839 69.6947 127.04 70.0493 127.348 70.292C127.656 70.5347 128.071 70.656 128.594 70.656C129.257 70.656 129.742 70.3947 130.05 69.872C130.358 69.3493 130.512 68.458 130.512 67.198C130.288 67.5153 129.971 67.7627 129.56 67.94C129.159 68.108 128.72 68.192 128.244 68.192C127.637 68.192 127.087 68.0707 126.592 67.828C126.097 67.576 125.705 67.2073 125.416 66.722C125.136 66.2273 124.996 65.63 124.996 64.93C124.996 63.9033 125.295 63.0867 125.892 62.48C126.499 61.864 127.329 61.556 128.384 61.556C129.653 61.556 130.554 61.9807 131.086 62.83C131.627 63.67 131.898 64.9627 131.898 66.708C131.898 67.912 131.795 68.8967 131.59 69.662C131.394 70.4273 131.049 71.006 130.554 71.398C130.059 71.79 129.373 71.986 128.496 71.986C127.497 71.986 126.727 71.7247 126.186 71.202C125.645 70.6793 125.341 70.0213 125.276 69.228H126.746ZM128.524 66.848C129.084 66.848 129.523 66.6753 129.84 66.33C130.167 65.9753 130.33 65.5087 130.33 64.93C130.33 64.286 130.157 63.7867 129.812 63.432C129.476 63.068 129.014 62.886 128.426 62.886C127.838 62.886 127.371 63.0727 127.026 63.446C126.69 63.81 126.522 64.2907 126.522 64.888C126.522 65.4573 126.685 65.9287 127.012 66.302C127.348 66.666 127.852 66.848 128.524 66.848ZM134.527 69.83C135.423 69.0553 136.127 68.4207 136.641 67.926C137.163 67.422 137.597 66.8993 137.943 66.358C138.288 65.8167 138.461 65.2753 138.461 64.734C138.461 64.174 138.325 63.7353 138.055 63.418C137.793 63.1007 137.378 62.942 136.809 62.942C136.258 62.942 135.829 63.1193 135.521 63.474C135.222 63.8193 135.063 64.286 135.045 64.874H133.505C133.533 63.81 133.85 62.998 134.457 62.438C135.073 61.8687 135.852 61.584 136.795 61.584C137.812 61.584 138.605 61.864 139.175 62.424C139.753 62.984 140.043 63.7307 140.043 64.664C140.043 65.336 139.87 65.9847 139.525 66.61C139.189 67.226 138.783 67.7813 138.307 68.276C137.84 68.7613 137.243 69.326 136.515 69.97L135.885 70.53H140.323V71.86H133.519V70.698L134.527 69.83ZM141.697 64.314C141.753 63.446 142.084 62.7693 142.691 62.284C143.307 61.7987 144.091 61.556 145.043 61.556C145.696 61.556 146.261 61.6727 146.737 61.906C147.213 62.1393 147.572 62.4567 147.815 62.858C148.057 63.2593 148.179 63.712 148.179 64.216C148.179 64.7947 148.025 65.2893 147.717 65.7C147.409 66.1107 147.04 66.386 146.611 66.526V66.582C147.161 66.75 147.591 67.058 147.899 67.506C148.207 67.9447 148.361 68.5093 148.361 69.2C148.361 69.7507 148.235 70.2407 147.983 70.67C147.731 71.0993 147.357 71.44 146.863 71.692C146.368 71.9347 145.775 72.056 145.085 72.056C144.077 72.056 143.246 71.7993 142.593 71.286C141.949 70.7633 141.603 70.0167 141.557 69.046H143.097C143.134 69.5407 143.325 69.9467 143.671 70.264C144.016 70.572 144.483 70.726 145.071 70.726C145.64 70.726 146.079 70.572 146.387 70.264C146.695 69.9467 146.849 69.5407 146.849 69.046C146.849 68.3927 146.639 67.9307 146.219 67.66C145.808 67.38 145.173 67.24 144.315 67.24H143.951V65.924H144.329C145.085 65.9147 145.659 65.7887 146.051 65.546C146.452 65.3033 146.653 64.9207 146.653 64.398C146.653 63.95 146.508 63.5953 146.219 63.334C145.929 63.0633 145.519 62.928 144.987 62.928C144.464 62.928 144.058 63.0633 143.769 63.334C143.479 63.5953 143.307 63.922 143.251 64.314H141.697Z" fill="#111827"/>
<path fill-rule="evenodd" clip-rule="evenodd" d="M55.5459 73.8864H62.622V61.1135H55.5459V73.8864Z" fill="#FF5F00"/>
<path fill-rule="evenodd" clip-rule="evenodd" d="M55.9952 67.5002C55.9952 64.9089 57.2031 62.601 59.084 61.1137C57.7083 60.0259 55.9728 59.377 54.0863 59.377C49.6203 59.377 46 63.0139 46 67.5002C46 71.9864 49.6203 75.6234 54.0863 75.6234C55.9728 75.6234 57.7083 74.9744 59.084 73.8866C57.2031 72.3991 55.9952 70.0915 55.9952 67.5002Z" fill="#EB001B"/>
<path fill-rule="evenodd" clip-rule="evenodd" d="M71.9155 72.5336V72.2184H71.8335L71.7394 72.4352L71.645 72.2184H71.563V72.5336H71.6208V72.2958L71.7093 72.5009H71.7692L71.8577 72.2953V72.5336H71.9155ZM71.3963 72.5336V72.2721H71.5015V72.2188H71.2342V72.2721H71.3391V72.5336H71.3963ZM72.168 67.4999C72.168 71.9862 68.5475 75.6231 64.0817 75.6231C62.1952 75.6231 60.4594 74.9742 59.084 73.8863C60.9649 72.3991 62.1727 70.0912 62.1727 67.4999C62.1727 64.9088 60.9649 62.6009 59.084 61.1135C60.4594 60.0257 62.1952 59.3767 64.0817 59.3767C68.5475 59.3767 72.168 63.0136 72.168 67.4999Z" fill="#F79E1B"/>
<g filter="url(#filter1_d_1_987)">
<rect x="237" y="119" width="158" height="68" rx="12" fill="white"/>
</g>
<path d="M252.78 135.18C252.78 135.553 252.69 135.903 252.51 136.23C252.337 136.557 252.06 136.82 251.68 137.02C251.307 137.22 250.833 137.32 250.26 137.32H249.09V140H247.69V133.02H250.26C250.8 133.02 251.26 133.113 251.64 133.3C252.02 133.487 252.303 133.743 252.49 134.07C252.683 134.397 252.78 134.767 252.78 135.18ZM250.2 136.19C250.587 136.19 250.873 136.103 251.06 135.93C251.247 135.75 251.34 135.5 251.34 135.18C251.34 134.5 250.96 134.16 250.2 134.16H249.09V136.19H250.2ZM253.414 137.21C253.414 136.65 253.524 136.153 253.744 135.72C253.971 135.287 254.274 134.953 254.654 134.72C255.041 134.487 255.471 134.37 255.944 134.37C256.357 134.37 256.717 134.453 257.024 134.62C257.337 134.787 257.587 134.997 257.774 135.25V134.46H259.184V140H257.774V139.19C257.594 139.45 257.344 139.667 257.024 139.84C256.711 140.007 256.347 140.09 255.934 140.09C255.467 140.09 255.041 139.97 254.654 139.73C254.274 139.49 253.971 139.153 253.744 138.72C253.524 138.28 253.414 137.777 253.414 137.21ZM257.774 137.23C257.774 136.89 257.707 136.6 257.574 136.36C257.441 136.113 257.261 135.927 257.034 135.8C256.807 135.667 256.564 135.6 256.304 135.6C256.044 135.6 255.804 135.663 255.584 135.79C255.364 135.917 255.184 136.103 255.044 136.35C254.911 136.59 254.844 136.877 254.844 137.21C254.844 137.543 254.911 137.837 255.044 138.09C255.184 138.337 255.364 138.527 255.584 138.66C255.811 138.793 256.051 138.86 256.304 138.86C256.564 138.86 256.807 138.797 257.034 138.67C257.261 138.537 257.441 138.35 257.574 138.11C257.707 137.863 257.774 137.57 257.774 137.23ZM265.851 134.46L262.421 142.62H260.931L262.131 139.86L259.911 134.46H261.481L262.911 138.33L264.361 134.46H265.851ZM273.486 134.38C274.166 134.38 274.713 134.59 275.126 135.01C275.546 135.423 275.756 136.003 275.756 136.75V140H274.356V136.94C274.356 136.507 274.246 136.177 274.026 135.95C273.806 135.717 273.506 135.6 273.126 135.6C272.746 135.6 272.443 135.717 272.216 135.95C271.996 136.177 271.886 136.507 271.886 136.94V140H270.486V136.94C270.486 136.507 270.376 136.177 270.156 135.95C269.936 135.717 269.636 135.6 269.256 135.6C268.869 135.6 268.563 135.717 268.336 135.95C268.116 136.177 268.006 136.507 268.006 136.94V140H266.606V134.46H268.006V135.13C268.186 134.897 268.416 134.713 268.696 134.58C268.983 134.447 269.296 134.38 269.636 134.38C270.069 134.38 270.456 134.473 270.796 134.66C271.136 134.84 271.399 135.1 271.586 135.44C271.766 135.12 272.026 134.863 272.366 134.67C272.713 134.477 273.086 134.38 273.486 134.38ZM282.235 137.11C282.235 137.31 282.221 137.49 282.195 137.65H278.145C278.178 138.05 278.318 138.363 278.565 138.59C278.811 138.817 279.115 138.93 279.475 138.93C279.995 138.93 280.365 138.707 280.585 138.26H282.095C281.935 138.793 281.628 139.233 281.175 139.58C280.721 139.92 280.165 140.09 279.505 140.09C278.971 140.09 278.491 139.973 278.065 139.74C277.645 139.5 277.315 139.163 277.075 138.73C276.841 138.297 276.725 137.797 276.725 137.23C276.725 136.657 276.841 136.153 277.075 135.72C277.308 135.287 277.635 134.953 278.055 134.72C278.475 134.487 278.958 134.37 279.505 134.37C280.031 134.37 280.501 134.483 280.915 134.71C281.335 134.937 281.658 135.26 281.885 135.68C282.118 136.093 282.235 136.57 282.235 137.11ZM280.785 136.71C280.778 136.35 280.648 136.063 280.395 135.85C280.141 135.63 279.831 135.52 279.465 135.52C279.118 135.52 278.825 135.627 278.585 135.84C278.351 136.047 278.208 136.337 278.155 136.71H280.785ZM286.326 134.38C286.986 134.38 287.52 134.59 287.926 135.01C288.333 135.423 288.536 136.003 288.536 136.75V140H287.136V136.94C287.136 136.5 287.026 136.163 286.806 135.93C286.586 135.69 286.286 135.57 285.906 135.57C285.52 135.57 285.213 135.69 284.986 135.93C284.766 136.163 284.656 136.5 284.656 136.94V140H283.256V134.46H284.656V135.15C284.843 134.91 285.08 134.723 285.366 134.59C285.66 134.45 285.98 134.38 286.326 134.38ZM291.498 135.61V138.29C291.498 138.477 291.541 138.613 291.628 138.7C291.721 138.78 291.874 138.82 292.088 138.82H292.738V140H291.858C290.678 140 290.088 139.427 290.088 138.28V135.61H289.428V134.46H290.088V133.09H291.498V134.46H292.738V135.61H291.498Z" fill="#858585"/>
<path d="M381.75 132.5C381.75 132.086 381.414 131.75 381 131.75C380.586 131.75 380.25 132.086 380.25 132.5H381.75ZM380.25 139.5C380.25 139.914 380.586 140.25 381 140.25C381.414 140.25 381.75 139.914 381.75 139.5H380.25ZM377.5 135.25C377.086 135.25 376.75 135.586 376.75 136C376.75 136.414 377.086 136.75 377.5 136.75V135.25ZM384.5 136.75C384.914 136.75 385.25 136.414 385.25 136C385.25 135.586 384.914 135.25 384.5 135.25V136.75ZM380.25 132.5V139.5H381.75V132.5H380.25ZM377.5 136.75H384.5V135.25H377.5V136.75Z" fill="#004852"/>
<path d="M293.656 163.494L294.286 164.614L292.368 165.328L294.286 166.042L293.642 167.19L292.046 165.93L292.34 167.96H291.052L291.318 165.93L289.722 167.218L289.05 166.028L290.954 165.314L289.05 164.628L289.694 163.48L291.332 164.74L291.052 162.696H292.354L292.046 164.74L293.656 163.494ZM300.711 163.494L301.341 164.614L299.423 165.328L301.341 166.042L300.697 167.19L299.101 165.93L299.395 167.96H298.107L298.373 165.93L296.777 167.218L296.105 166.028L298.009 165.314L296.105 164.628L296.749 163.48L298.387 164.74L298.107 162.696H299.409L299.101 164.74L300.711 163.494ZM307.765 163.494L308.395 164.614L306.477 165.328L308.395 166.042L307.751 167.19L306.155 165.93L306.449 167.96H305.161L305.427 165.93L303.831 167.218L303.159 166.028L305.063 165.314L303.159 164.628L303.803 163.48L305.441 164.74L305.161 162.696H306.463L306.155 164.74L307.765 163.494ZM314.82 163.494L315.45 164.614L313.532 165.328L315.45 166.042L314.806 167.19L313.21 165.93L313.504 167.96H312.216L312.482 165.93L310.886 167.218L310.214 166.028L312.118 165.314L310.214 164.628L310.858 163.48L312.496 164.74L312.216 162.696H313.518L313.21 164.74L314.82 163.494ZM320.653 164.25V162.794H323.565V173H321.955V164.25H320.653ZM327.746 170.228C327.839 170.695 328.04 171.049 328.348 171.292C328.656 171.535 329.071 171.656 329.594 171.656C330.257 171.656 330.742 171.395 331.05 170.872C331.358 170.349 331.512 169.458 331.512 168.198C331.288 168.515 330.971 168.763 330.56 168.94C330.159 169.108 329.72 169.192 329.244 169.192C328.637 169.192 328.087 169.071 327.592 168.828C327.097 168.576 326.705 168.207 326.416 167.722C326.136 167.227 325.996 166.63 325.996 165.93C325.996 164.903 326.295 164.087 326.892 163.48C327.499 162.864 328.329 162.556 329.384 162.556C330.653 162.556 331.554 162.981 332.086 163.83C332.627 164.67 332.898 165.963 332.898 167.708C332.898 168.912 332.795 169.897 332.59 170.662C332.394 171.427 332.049 172.006 331.554 172.398C331.059 172.79 330.373 172.986 329.496 172.986C328.497 172.986 327.727 172.725 327.186 172.202C326.645 171.679 326.341 171.021 326.276 170.228H327.746ZM329.524 167.848C330.084 167.848 330.523 167.675 330.84 167.33C331.167 166.975 331.33 166.509 331.33 165.93C331.33 165.286 331.157 164.787 330.812 164.432C330.476 164.068 330.014 163.886 329.426 163.886C328.838 163.886 328.371 164.073 328.026 164.446C327.69 164.81 327.522 165.291 327.522 165.888C327.522 166.457 327.685 166.929 328.012 167.302C328.348 167.666 328.852 167.848 329.524 167.848ZM335.527 170.83C336.423 170.055 337.127 169.421 337.641 168.926C338.163 168.422 338.597 167.899 338.943 167.358C339.288 166.817 339.461 166.275 339.461 165.734C339.461 165.174 339.325 164.735 339.055 164.418C338.793 164.101 338.378 163.942 337.809 163.942C337.258 163.942 336.829 164.119 336.521 164.474C336.222 164.819 336.063 165.286 336.045 165.874H334.505C334.533 164.81 334.85 163.998 335.457 163.438C336.073 162.869 336.852 162.584 337.795 162.584C338.812 162.584 339.605 162.864 340.175 163.424C340.753 163.984 341.043 164.731 341.043 165.664C341.043 166.336 340.87 166.985 340.525 167.61C340.189 168.226 339.783 168.781 339.307 169.276C338.84 169.761 338.243 170.326 337.515 170.97L336.885 171.53H341.323V172.86H334.519V171.698L335.527 170.83ZM342.697 165.314C342.753 164.446 343.084 163.769 343.691 163.284C344.307 162.799 345.091 162.556 346.043 162.556C346.696 162.556 347.261 162.673 347.737 162.906C348.213 163.139 348.572 163.457 348.815 163.858C349.057 164.259 349.179 164.712 349.179 165.216C349.179 165.795 349.025 166.289 348.717 166.7C348.409 167.111 348.04 167.386 347.611 167.526V167.582C348.161 167.75 348.591 168.058 348.899 168.506C349.207 168.945 349.361 169.509 349.361 170.2C349.361 170.751 349.235 171.241 348.983 171.67C348.731 172.099 348.357 172.44 347.863 172.692C347.368 172.935 346.775 173.056 346.085 173.056C345.077 173.056 344.246 172.799 343.593 172.286C342.949 171.763 342.603 171.017 342.557 170.046H344.097C344.134 170.541 344.325 170.947 344.671 171.264C345.016 171.572 345.483 171.726 346.071 171.726C346.64 171.726 347.079 171.572 347.387 171.264C347.695 170.947 347.849 170.541 347.849 170.046C347.849 169.393 347.639 168.931 347.219 168.66C346.808 168.38 346.173 168.24 345.315 168.24H344.951V166.924H345.329C346.085 166.915 346.659 166.789 347.051 166.546C347.452 166.303 347.653 165.921 347.653 165.398C347.653 164.95 347.508 164.595 347.219 164.334C346.929 164.063 346.519 163.928 345.987 163.928C345.464 163.928 345.058 164.063 344.769 164.334C344.479 164.595 344.307 164.922 344.251 165.314H342.697Z" fill="#111827"/>
<path fill-rule="evenodd" clip-rule="evenodd" d="M256.546 174.886H263.622V162.114H256.546V174.886Z" fill="#FF5F00"/>
<path fill-rule="evenodd" clip-rule="evenodd" d="M256.995 168.5C256.995 165.909 258.203 163.601 260.084 162.114C258.708 161.026 256.973 160.377 255.086 160.377C250.62 160.377 247 164.014 247 168.5C247 172.986 250.62 176.623 255.086 176.623C256.973 176.623 258.708 175.974 260.084 174.887C258.203 173.399 256.995 171.091 256.995 168.5Z" fill="#EB001B"/>
<path fill-rule="evenodd" clip-rule="evenodd" d="M272.915 173.534V173.218H272.833L272.739 173.435L272.645 173.218H272.563V173.534H272.621V173.296L272.709 173.501H272.769L272.858 173.295V173.534H272.915ZM272.396 173.534V173.272H272.501V173.219H272.234V173.272H272.339V173.534H272.396ZM273.168 168.5C273.168 172.986 269.547 176.623 265.082 176.623C263.195 176.623 261.459 175.974 260.084 174.886C261.965 173.399 263.173 171.091 263.173 168.5C263.173 165.909 261.965 163.601 260.084 162.113C261.459 161.026 263.195 160.377 265.082 160.377C269.547 160.377 273.168 164.014 273.168 168.5Z" fill="#F79E1B"/>
<defs>
<filter id="filter0_d_1_987" x="-5" y="0" width="238" height="148" filterUnits="userSpaceOnUse" color-interpolation-filters="sRGB">
<feFlood flood-opacity="0" result="BackgroundImageFix"/>
<feColorMatrix in="SourceAlpha" type="matrix" values="0 0 0 0 0 0 0 0 0 0 0 0 0 0 0 0 0 0 127 0" result="hardAlpha"/>
<feOffset dx="-1" dy="22"/>
<feGaussianBlur stdDeviation="20"/>
<feComposite in2="hardAlpha" operator="out"/>
<feColorMatrix type="matrix" values="0 0 0 0 0 0 0 0 0 0.282353 0 0 0 0 0.321569 0 0 0 0.2 0"/>
<feBlend mode="normal" in2="BackgroundImageFix" result="effect1_dropShadow_1_987"/>
<feBlend mode="normal" in="SourceGraphic" in2="effect1_dropShadow_1_987" result="shape"/>
</filter>
<filter id="filter1_d_1_987" x="196" y="101" width="238" height="148" filterUnits="userSpaceOnUse" color-interpolation-filters="sRGB">
<feFlood flood-opacity="0" result="BackgroundImageFix"/>
<feColorMatrix in="SourceAlpha" type="matrix" values="0 0 0 0 0 0 0 0 0 0 0 0 0 0 0 0 0 0 127 0" result="hardAlpha"/>
<feOffset dx="-1" dy="22"/>
<feGaussianBlur stdDeviation="20"/>
<feComposite in2="hardAlpha" operator="out"/>
<feColorMatrix type="matrix" values="0 0 0 0 0 0 0 0 0 0.282353 0 0 0 0 0.321569 0 0 0 0.2 0"/>
<feBlend mode="normal" in2="BackgroundImageFix" result="effect1_dropShadow_1_987"/>
<feBlend mode="normal" in="SourceGraphic" in2="effect1_dropShadow_1_987" result="shape"/>
</filter>
</defs>
</svg>
